<svg xmlns="http://www.w3.org/2000/svg" version="1.1" xmlns:xlink="http://www.w3.org/1999/xlink" xmlns:svgjs="http://svgjs.dev/svgjs" width="1500" height="1500" viewBox="0 0 1500 1500"><rect width="1500" height="1500" fill="#ffffff"></rect><g transform="matrix(0.6666666666666666,0,0,0.6666666666666666,249.39393939393938,624.6745027330086)"><svg viewBox="0 0 396 99" data-background-color="#ffffff" preserveAspectRatio="xMidYMid meet" height="375" width="1500" xmlns="http://www.w3.org/2000/svg" xmlns:xlink="http://www.w3.org/1999/xlink"><g id="tight-bounds" transform="matrix(1,0,0,1,0.2400000000000091,0.12889691772858214)"><svg viewBox="0 0 395.52 98.74220616454285" height="98.74220616454285" width="395.52"><g><svg viewBox="0 0 395.52 98.74220616454285" height="98.74220616454285" width="395.52"><g><svg viewBox="0 0 599.7229970687999 149.7218138607023" height="98.74220616454285" width="395.52"><g transform="matrix(1,0,0,1,202.2253970688,25.11292721073618)"><svg viewBox="0 0 397.4976 99.49595943922994" height="99.49595943922994" width="397.4976"><g id="textblocktransform"><svg viewBox="0 0 397.4976 99.49595943922994" height="99.49595943922994" width="397.4976" id="textblock"><g><rect width="397.4976" height="4.9935762487296005" x="0" y="61.25528510976001" fill="#e3e3e3" opacity="1" stroke-width="0" stroke="transparent" fill-opacity="1" class="rect-qz-0" data-fill-palette-color="primary" rx="1%" id="qz-0" data-palette-color="#e3e3e3"></rect></g><g transform="matrix(1,0,0,1,0.9887999999999693,0)"><svg viewBox="0 0 395.52000000000004 55.372800000000005" height="55.372800000000005" width="395.52000000000004"><g transform="matrix(1,0,0,1,0,0)"><svg width="395.52000000000004" viewBox="4 -39.95 287.48 40.25" height="55.372800000000005" data-palette-color="#e3e3e3"><path d="M26.6 0.05L7.15 0.05Q5.3 0.05 4.65-0.9 4-1.85 4-3L4-3 4-37.55Q4-39.95 6.9-39.95L6.9-39.95Q9.9-39.95 9.9-37.55L9.9-37.55 9.9-5 26.6-5Q28.4-5 28.4-2.55L28.4-2.55Q28.5 0.05 26.6 0.05L26.6 0.05ZM38.05-22.15L38.05-8Q38.05-6.8 38.82-5.75 39.6-4.7 41.45-4.7L41.45-4.7 47.7-4.7Q49.55-4.7 50.32-5.63 51.1-6.55 51.1-7.75L51.1-7.75 51.1-8.3Q51.1-10.65 53.85-10.65L53.85-10.65Q56.6-10.65 56.6-8.3L56.6-8.3 56.6-7.7Q56.6-5.6 55.92-4.25 55.25-2.9 53.9-1.9L53.9-1.9Q51.25 0 48.6 0L48.6 0 40.2 0Q37.55 0 35.05-1.9L35.05-1.9Q33.85-2.9 33.2-4.42 32.55-5.95 32.55-7.95L32.55-7.95 32.55-22.2Q32.55-26.25 35.05-28.2L35.05-28.2Q36.3-29.1 37.62-29.63 38.95-30.15 40.2-30.15L40.2-30.15 48.6-30.15Q49.8-30.15 51.25-29.68 52.7-29.2 53.95-28.4L53.95-28.4Q55.15-27.55 55.87-26.05 56.6-24.55 56.6-22.5L56.6-22.5 56.6-15.75Q56.6-14.6 55.92-13.7 55.25-12.8 53.45-12.8L53.45-12.8 42.65-12.8Q40.85-12.8 40.75-15.15L40.75-15.15Q40.75-17.5 42.65-17.5L42.65-17.5 51.15-17.5 51.1-22.15Q51.1-23.4 50.32-24.43 49.55-25.45 47.7-25.45L47.7-25.45 41.45-25.45Q39.6-25.45 38.82-24.43 38.05-23.4 38.05-22.15L38.05-22.15ZM77.05 0L70.5 0Q68.95 0 67.55-0.43 66.15-0.85 64.84-1.65L64.84-1.65 64.84-1.6Q62.4-3.15 62.4-7.3L62.4-7.3 62.4-9.75Q62.4-11.8 63.12-13.33 63.85-14.85 65.15-15.75L65.15-15.75 65.09-15.75Q66.34-16.6 67.75-17.03 69.15-17.45 70.45-17.45L70.45-17.45 81.5-17.45 81.5-22.1Q81.5-23.35 80.72-24.38 79.95-25.4 78.09-25.4L78.09-25.4 72.25-25.4Q70.34-25.4 69.62-24.48 68.9-23.55 68.9-22.3L68.9-22.3 68.9-21.9Q68.9-19.3 66.09-19.3L66.09-19.3Q63.3-19.3 63.3-21.9L63.3-21.9 63.3-22.35Q63.3-24.4 64.02-25.8 64.75-27.2 66-28.15L66-28.15 65.95-28.15Q67.25-29 68.67-29.55 70.09-30.1 71.4-30.1L71.4-30.1 79-30.1Q80.25-30.1 81.67-29.55 83.09-29 84.34-28.15L84.34-28.15 84.3-28.15Q85.59-27.2 86.3-25.68 87-24.15 87-22.15L87-22.15 87-2.1Q87 0.3 84.25 0.3L84.25 0.3Q83.7 0.3 83.22 0.25 82.75 0.2 82.37-0.03 82-0.25 81.77-0.68 81.55-1.1 81.55-1.8L81.55-1.8 81.5-12.75 71.4-12.75Q70.3-12.75 69.7-12.5 69.09-12.25 68.75-11.7L68.75-11.7Q68.34-10.85 68.17-10.38 68-9.9 68-9.3L68-9.3 68-7.35Q68-6.05 68.77-5.38 69.55-4.7 71.45-4.7L71.45-4.7 77.05-4.7Q78.9-4.7 78.9-2.35L78.9-2.35Q78.9-1.35 78.45-0.68 78 0 77.05 0L77.05 0ZM98.84-22.75L98.84-2.1Q98.84 0.3 96.09 0.3L96.09 0.3Q93.24 0.3 93.24-2.1L93.24-2.1 93.24-22.8Q93.24-26.9 95.69-28.5L95.69-28.5Q98.14-30.1 101.34-30.1L101.34-30.1 107.04-30.1Q108.89-30.1 108.89-27.75L108.89-27.75Q108.99-25.4 107.04-25.4L107.04-25.4 101.74-25.4Q99.94-25.4 99.39-24.7 98.84-24 98.84-22.75L98.84-22.75ZM118.64-21.75L118.64-2.1Q118.64 0.3 115.89 0.3L115.89 0.3Q113.14 0.3 113.14-2.1L113.14-2.1 113.14-22.2Q113.14-24.25 113.79-25.75 114.44-27.25 115.84-28.2L115.84-28.2Q118.49-30.1 121.14-30.1L121.14-30.1 129.19-30.1Q131.74-30.1 134.49-28.2L134.49-28.2Q137.19-26.3 137.19-22.2L137.19-22.2 137.19-2.1Q137.19 0.3 134.44 0.3L134.44 0.3Q131.69 0.3 131.69-2.1L131.69-2.1 131.69-21.75Q131.69-23.05 130.89-24.25L130.89-24.25 130.94-24.2Q130.29-25.4 128.29-25.4L128.29-25.4 122.04-25.4Q119.99-25.4 119.34-24.2L119.34-24.2Q118.64-23.15 118.64-21.75L118.64-21.75ZM165.59 0.05L147.29 0.05Q145.44 0.05 144.79-0.9 144.14-1.85 144.14-3L144.14-3 144.14-36.7Q144.14-37.85 144.79-38.78 145.44-39.7 147.29-39.7L147.29-39.7 164.69-39.7Q166.54-39.7 166.64-37.2L166.64-37.2Q166.74-34.65 164.69-34.65L164.69-34.65 150.04-34.65 150.04-5 165.59-5Q167.44-5 167.49-2.55L167.49-2.55Q167.59 0.05 165.59 0.05L165.59 0.05ZM162.84-20.65L162.84-20.65Q162.84-18.9 161.61-17.7 160.39-16.5 158.64-16.5L158.64-16.5Q156.94-16.5 155.74-17.7 154.54-18.9 154.54-20.65L154.54-20.65Q154.54-22.4 155.74-23.6 156.94-24.8 158.64-24.8L158.64-24.8Q160.39-24.8 161.61-23.6 162.84-22.4 162.84-20.65ZM186.54 0L179.99 0Q178.44 0 177.04-0.43 175.64-0.85 174.34-1.65L174.34-1.65 174.34-1.6Q171.89-3.15 171.89-7.3L171.89-7.3 171.89-9.75Q171.89-11.8 172.61-13.33 173.34-14.85 174.64-15.75L174.64-15.75 174.59-15.75Q175.84-16.6 177.24-17.03 178.64-17.45 179.94-17.45L179.94-17.45 190.99-17.45 190.99-22.1Q190.99-23.35 190.21-24.38 189.44-25.4 187.59-25.4L187.59-25.4 181.74-25.4Q179.84-25.4 179.11-24.48 178.39-23.55 178.39-22.3L178.39-22.3 178.39-21.9Q178.39-19.3 175.59-19.3L175.59-19.3Q172.79-19.3 172.79-21.9L172.79-21.9 172.79-22.35Q172.79-24.4 173.51-25.8 174.24-27.2 175.49-28.15L175.49-28.15 175.44-28.15Q176.74-29 178.16-29.55 179.59-30.1 180.89-30.1L180.89-30.1 188.49-30.1Q189.74-30.1 191.16-29.55 192.59-29 193.84-28.15L193.84-28.15 193.79-28.15Q195.09-27.2 195.79-25.68 196.49-24.15 196.49-22.15L196.49-22.15 196.49-2.1Q196.49 0.3 193.74 0.3L193.74 0.3Q193.19 0.3 192.71 0.25 192.24 0.2 191.86-0.03 191.49-0.25 191.26-0.68 191.04-1.1 191.04-1.8L191.04-1.8 190.99-12.75 180.89-12.75Q179.79-12.75 179.19-12.5 178.59-12.25 178.24-11.7L178.24-11.7Q177.84-10.85 177.66-10.38 177.49-9.9 177.49-9.3L177.49-9.3 177.49-7.35Q177.49-6.05 178.26-5.38 179.04-4.7 180.94-4.7L180.94-4.7 186.54-4.7Q188.39-4.7 188.39-2.35L188.39-2.35Q188.39-1.35 187.94-0.68 187.49 0 186.54 0L186.54 0ZM211.83-17.5L219.18-17.5Q220.43-17.5 221.86-16.93 223.28-16.35 224.53-15.5L224.53-15.5 224.48-15.5Q225.78-14.55 226.48-13.05 227.18-11.55 227.18-9.45L227.18-9.45 227.18-7.95Q227.18-3.85 224.48-1.9L224.48-1.9Q223.18-0.9 221.83-0.45 220.48 0 219.18 0L219.18 0 210.68 0Q209.38 0 208.03-0.45 206.68-0.9 205.38-1.9L205.38-1.9Q202.68-3.8 202.68-7.95L202.68-7.95 202.68-8.55Q202.68-10.7 205.43-10.65L205.43-10.65Q208.23-10.65 208.23-8.55L208.23-8.55 208.23-8Q208.23-6.8 208.98-5.75 209.73-4.7 211.63-4.7L211.63-4.7 218.23-4.7Q220.13-4.7 220.88-5.75 221.63-6.8 221.63-8L221.63-8 221.63-9.4Q221.63-10.05 221.46-10.65 221.28-11.25 220.88-11.73 220.48-12.2 219.83-12.5 219.18-12.8 218.23-12.8L218.23-12.8 210.93-12.8Q208.38-12.8 205.58-14.6L205.58-14.6Q202.93-16.3 202.93-20.45L202.93-20.45 202.93-22.15Q202.93-24.15 203.63-25.68 204.33-27.2 205.63-28.15L205.63-28.15 205.58-28.15Q206.83-29 208.23-29.55 209.63-30.1 210.93-30.1L210.93-30.1 218.93-30.1Q220.23-30.1 221.61-29.55 222.98-29 224.28-28.15L224.28-28.15 224.23-28.15Q225.53-27.2 226.23-25.68 226.93-24.15 226.93-22.15L226.93-22.15 226.93-21.7Q226.93-20.65 226.23-20.18 225.53-19.7 224.18-19.65L224.18-19.65Q221.43-19.6 221.43-21.7L221.43-21.7 221.43-22.1Q221.43-23.35 220.66-24.38 219.88-25.4 218.03-25.4L218.03-25.4 211.83-25.4Q209.98-25.4 209.21-24.38 208.43-23.35 208.43-22.1L208.43-22.1 208.43-20.9Q208.43-19.6 209.21-18.55 209.98-17.5 211.83-17.5L211.83-17.5ZM239.18-22.15L239.18-8Q239.18-6.8 239.96-5.75 240.73-4.7 242.58-4.7L242.58-4.7 248.83-4.7Q250.68-4.7 251.46-5.63 252.23-6.55 252.23-7.75L252.23-7.75 252.23-8.3Q252.23-10.65 254.98-10.65L254.98-10.65Q257.73-10.65 257.73-8.3L257.73-8.3 257.73-7.7Q257.73-5.6 257.06-4.25 256.38-2.9 255.03-1.9L255.03-1.9Q252.38 0 249.73 0L249.73 0 241.33 0Q238.68 0 236.18-1.9L236.18-1.9Q234.98-2.9 234.33-4.42 233.68-5.95 233.68-7.95L233.68-7.95 233.68-22.2Q233.68-26.25 236.18-28.2L236.18-28.2Q237.43-29.1 238.76-29.63 240.08-30.15 241.33-30.15L241.33-30.15 249.73-30.15Q250.93-30.15 252.38-29.68 253.83-29.2 255.08-28.4L255.08-28.4Q256.28-27.55 257.01-26.05 257.73-24.55 257.73-22.5L257.73-22.5 257.73-15.75Q257.73-14.6 257.06-13.7 256.38-12.8 254.58-12.8L254.58-12.8 243.78-12.8Q241.98-12.8 241.88-15.15L241.88-15.15Q241.88-17.5 243.78-17.5L243.78-17.5 252.28-17.5 252.23-22.15Q252.23-23.4 251.46-24.43 250.68-25.45 248.83-25.45L248.83-25.45 242.58-25.45Q240.73-25.45 239.96-24.43 239.18-23.4 239.18-22.15L239.18-22.15ZM291.48-37.55L291.48-8Q291.48-3.95 288.78-1.95L288.78-1.95Q287.48-1 286.1-0.48 284.73 0.05 283.43 0.05L283.43 0.05 272.53 0.05Q271.23 0.05 269.85-0.48 268.48-1 267.18-1.95L267.18-1.95Q265.88-2.95 265.18-4.42 264.48-5.9 264.48-8L264.48-8 264.48-37.55Q264.48-39.95 267.43-39.95L267.43-39.95Q270.43-39.95 270.43-37.55L270.43-37.55 270.43-8.4Q270.43-7.1 271.18-6.05 271.93-5 273.78-5L273.78-5 282.18-5Q284.03-5 284.78-6.05 285.53-7.1 285.53-8.4L285.53-8.4 285.53-37.55Q285.53-39.95 288.48-39.95L288.48-39.95Q291.48-39.95 291.48-37.55L291.48-37.55Z" opacity="1" transform="matrix(1,0,0,1,0,0)" fill="#e3e3e3" class="wordmark-text-0" data-fill-palette-color="primary" id="text-0"></path></svg></g></svg></g><g transform="matrix(1,0,0,1,0,72.1313464682496)"><svg viewBox="0 0 375.744 27.36461297098033" height="27.36461297098033" width="375.744"><g transform="matrix(1,0,0,1,0,0)"><svg width="375.744" viewBox="1.03 -32.15 569.48 41.48" height="27.36461297098033" data-palette-color="#e3e3e3"><path d="M22-28.54Q20.9-29.86 19.13-30.43 17.36-31.01 15.5-31.01L15.5-31.01Q12.74-31.01 10.24-29.88 7.74-28.76 6.18-26.6 4.61-24.44 4.61-21.48L4.61-21.48Q4.61-19.46 5.57-17.92 6.52-16.38 7.87-15.33 9.23-14.28 11.38-12.96L11.38-12.96Q13.06-11.91 14.04-11.21 15.01-10.5 15.66-9.61 16.31-8.72 16.31-7.62L16.31-7.62Q16.31-5.76 15.27-4.47 14.23-3.17 12.7-2.54 11.16-1.9 9.62-1.9L9.62-1.9Q7.91-1.9 6.71-2.62 5.52-3.34 4.98-4.57L4.98-4.57 4.83-9.16 2.42-9.52 1.03-2.98Q1.54-1.98 2.67-1.16 3.81-0.34 5.38 0.13 6.96 0.61 8.67 0.61L8.67 0.61Q11.79 0.61 14.66-0.6 17.53-1.81 19.32-4.06 21.12-6.32 21.12-9.28L21.12-9.28Q21.12-11.3 20.17-12.83 19.21-14.36 17.87-15.41 16.53-16.46 14.36-17.82L14.36-17.82Q12.57-18.92 11.54-19.69 10.5-20.46 9.81-21.44 9.13-22.41 9.13-23.63L9.13-23.63Q9.13-26.27 10.61-27.59 12.08-28.91 14.33-28.91L14.33-28.91Q15.28-28.91 16.1-28.5 16.92-28.1 17.46-27.55 17.99-27 18.09-26.61L18.09-26.61 18.02-21.92 20.39-21.66 22-28.54ZM28.56-28.74Q28.56-27.64 29.34-26.87 30.12-26.1 31.2-26.1L31.2-26.1Q32.42-26.1 33.26-26.87 34.1-27.64 34.1-28.78L34.1-28.78Q34.1-29.96 33.33-30.75 32.57-31.54 31.47-31.54L31.47-31.54Q30.64-31.54 29.97-31.15 29.29-30.76 28.93-30.11 28.56-29.47 28.56-28.74L28.56-28.74ZM24.63-18.87L25.66-18.9Q26.76-18.9 27.32-18.59 27.88-18.29 27.88-17.38L27.88-17.38Q27.88-17.21 27.83-16.82L27.83-16.82 26.1-4.74Q25.95-3.69 25.95-2.86L25.95-2.86Q25.95-1.12 26.76-0.35 27.56 0.42 29.47 0.42L29.47 0.42Q30.42 0.42 31.36 0.18 32.3-0.05 32.91-0.37L32.91-0.37 33.1-2.34Q32.05-2.32 31.43-2.4 30.81-2.49 30.41-2.91 30-3.32 30-4.2L30-4.2Q30-4.93 30.14-6.04 30.27-7.15 30.56-9.23L30.56-9.23 31.69-16.92Q31.83-17.92 31.83-18.73L31.83-18.73Q31.83-20.21 31.11-20.92 30.39-21.63 28.59-21.63L28.59-21.63Q26.51-21.63 24.85-20.83L24.85-20.83 24.63-18.87ZM65.23-4.27Q65.23-3.39 65.63-2.98 66.04-2.56 66.66-2.48 67.28-2.39 68.33-2.42L68.33-2.42 68.13-0.44Q67.52-0.12 66.58 0.11 65.64 0.34 64.69 0.34L64.69 0.34Q62.76 0.34 61.97-0.45 61.18-1.25 61.18-2.98L61.18-2.98Q61.18-3.78 61.32-4.81L61.32-4.81 62.35-12.82Q62.52-14.23 62.52-15.01L62.52-15.01Q62.52-16.58 61.97-17.38 61.42-18.19 60.15-18.19L60.15-18.19Q58.49-18.19 57.28-17.5 56.07-16.82 55.05-15.72L55.05-15.72 54.98-14.97 53.27 0 49.29 0 50.9-12.82Q51.04-13.99 51.04-14.94L51.04-14.94Q51.04-16.58 50.47-17.38 49.9-18.19 48.48-18.19L48.48-18.19Q46.97-18.19 45.92-17.63 44.87-17.07 43.92-16.16L43.92-16.16 41.6 0 37.62 0 39.86-17.02Q39.91-17.41 39.91-17.55L39.91-17.55Q39.91-18.48 39.35-18.79 38.79-19.09 37.71-19.09L37.71-19.09 36.66-19.07 36.88-21.02Q38.54-21.83 40.62-21.83L40.62-21.83Q42.35-21.83 43.21-21.17 44.06-20.51 44.06-19.12L44.06-19.12Q44.06-18.53 43.87-17.63L43.87-17.63 44.16-17.63Q45.41-19.29 47.25-20.54 49.09-21.8 51.09-21.8L51.09-21.8Q53.17-21.8 54.13-20.65 55.1-19.51 55.1-17.04L55.1-17.04Q56.56-18.97 58.56-20.39 60.57-21.8 62.76-21.8L62.76-21.8Q64.72-21.8 65.63-20.65 66.55-19.51 66.55-17.04L66.55-17.04Q66.55-15.92 66.43-14.97L66.43-14.97 65.79-9.23 65.52-7.13Q65.23-5.03 65.23-4.27L65.23-4.27ZM73.92 8.94L77.65-15.89Q78.97-17.21 79.89-17.71 80.8-18.21 82.19-18.21L82.19-18.21Q83.17-18.21 84.01-17.46 84.86-16.7 85.37-15.25 85.88-13.79 85.88-11.87L85.88-11.87Q85.88-8.57 84.87-6.38 83.85-4.2 82.41-3.19 80.97-2.17 79.7-2.17L79.7-2.17Q78.43-2.17 77.85-2.32 77.26-2.47 76.58-2.78L76.58-2.78 76.02 0.2Q76.68 0.42 78.14 0.42L78.14 0.42Q81.05 0.42 83.79-1.5 86.54-3.42 88.27-6.57 90.01-9.72 90.01-13.23L90.01-13.23Q90.01-15.87 89.24-17.79 88.47-19.7 87.14-20.72 85.81-21.73 84.15-21.73L84.15-21.73Q82.88-21.73 81.63-21.12 80.39-20.51 79.41-19.54 78.43-18.58 77.87-17.58L77.87-17.58 77.56-17.63Q77.73-18.58 77.73-19.04L77.73-19.04Q77.73-20.19 77.01-20.74 76.29-21.29 74.53-21.29L74.53-21.29Q72.45-21.29 70.79-20.48L70.79-20.48 70.57-18.53 71.6-18.55Q72.67-18.55 73.25-18.24 73.82-17.92 73.82-16.99L73.82-16.99Q73.82-16.87 73.77-16.48L73.77-16.48 70.04 8.94 73.92 8.94ZM93.28-29.39L94.3-29.42Q95.4-29.42 95.96-29.11 96.52-28.81 96.52-27.91L96.52-27.91Q96.52-27.73 96.47-27.34L96.47-27.34 92.98-4.74Q92.81-3.49 92.81-2.83L92.81-2.83Q92.81-1.15 93.63-0.37 94.45 0.42 96.35 0.42L96.35 0.42Q97.3 0.42 98.24 0.18 99.18-0.05 99.79-0.37L99.79-0.37 99.99-2.34Q98.94-2.32 98.32-2.4 97.7-2.49 97.29-2.91 96.89-3.32 96.89-4.2L96.89-4.2Q96.89-5.66 97.45-9.23L97.45-9.23 100.33-27.44Q100.48-28.44 100.48-29.25L100.48-29.25Q100.48-30.74 99.76-31.45 99.04-32.15 97.23-32.15L97.23-32.15Q95.16-32.15 93.5-31.35L93.5-31.35 93.28-29.39ZM106.92-28.74Q106.92-27.64 107.7-26.87 108.48-26.1 109.56-26.1L109.56-26.1Q110.78-26.1 111.62-26.87 112.46-27.64 112.46-28.78L112.46-28.78Q112.46-29.96 111.69-30.75 110.93-31.54 109.83-31.54L109.83-31.54Q109-31.54 108.32-31.15 107.65-30.76 107.29-30.11 106.92-29.47 106.92-28.74L106.92-28.74ZM102.99-18.87L104.02-18.9Q105.11-18.9 105.68-18.59 106.24-18.29 106.24-17.38L106.24-17.38Q106.24-17.21 106.19-16.82L106.19-16.82 104.46-4.74Q104.31-3.69 104.31-2.86L104.31-2.86Q104.31-1.12 105.11-0.35 105.92 0.42 107.82 0.42L107.82 0.42Q108.78 0.42 109.72 0.18 110.66-0.05 111.27-0.37L111.27-0.37 111.46-2.34Q110.41-2.32 109.79-2.4 109.17-2.49 108.76-2.91 108.36-3.32 108.36-4.2L108.36-4.2Q108.36-4.93 108.5-6.04 108.63-7.15 108.92-9.23L108.92-9.23 110.05-16.92Q110.19-17.92 110.19-18.73L110.19-18.73Q110.19-20.21 109.47-20.92 108.75-21.63 106.95-21.63L106.95-21.63Q104.87-21.63 103.21-20.83L103.21-20.83 102.99-18.87ZM113.44 4.98L117.25 4.98Q117.78 4.32 118.27 2.59 118.76 0.85 119.74-3.3L119.74-3.3 122.42-18.75 126.69-18.75 127.13-20.95 122.74-20.95Q123.15-24.27 123.57-26.06 123.98-27.86 124.59-28.69 125.2-29.52 126.21-29.52L126.21-29.52Q127.08-29.52 127.68-29.25 128.28-28.98 128.71-28.56 129.14-28.15 129.77-27.34L129.77-27.34Q130.19-26.86 130.16-26.88L130.16-26.88Q131.31-27.25 131.89-27.95 132.48-28.66 132.48-29.39L132.48-29.39Q132.48-32.15 128.48-32.15L128.48-32.15Q126.57-32.15 124.59-30.87 122.62-29.59 121.1-27.12 119.59-24.66 119.03-21.29L119.03-21.29 115.19-20.41 114.85-18.75 118.49-18.75 115.76-2.42Q114.93 1.25 114.5 2.61 114.07 3.98 113.44 4.98L113.44 4.98ZM128.67 9.33Q126.94 9.33 125.79 8.53 124.64 7.74 124.64 6.27L124.64 6.27Q124.64 5.59 124.93 4.91 125.23 4.22 125.79 3.66L125.79 3.66Q126.86 4.39 127.78 4.71 128.69 5.03 129.72 5.03L129.72 5.03Q131.77 5.03 133.21 3.81 134.65 2.59 135.75 0L135.75 0 131.84-17.02Q131.65-17.92 131.34-18.36 131.04-18.8 130.63-18.95 130.23-19.09 129.55-19.09L129.55-19.09 128.57-19.07 128.79-21.02Q130.35-21.83 132.28-21.83L132.28-21.83Q133.65-21.83 134.32-21.23 134.99-20.63 135.26-19.68 135.53-18.73 135.9-16.53L135.9-16.53 138.12-3.49Q139.61-6.15 141.07-10.19 142.54-14.23 142.54-18.21L142.54-18.21Q142.54-18.75 142.1-19.02 141.66-19.29 140.92-19.29L140.92-19.29Q140.29-19.29 139.8-19.17L139.8-19.17 140.02-21.12Q141.49-21.92 143.27-21.92L143.27-21.92Q144.78-21.92 145.45-21.18 146.13-20.43 146.13-18.99L146.13-18.99Q146.13-17.46 144.88-14.06 143.63-10.67 141.77-6.76 139.9-2.86 138.19 0.05L138.19 0.05Q136.46 3.1 135.18 4.96 133.89 6.81 132.26 8.07 130.62 9.33 128.67 9.33L128.67 9.33ZM171.27-12.89L181.06-27.59 184.18-28.52 184.72-30.37 173.88-30.37 173.34-28.52 177.66-27.49 170.34-15.65 165.46-27.59 169.44-28.52 170-30.37 157.62-30.37 157.03-28.52 160.21-27.49 166.51-12.33 165.02-2.95 161.13-1.81 160.62 0 173 0 173.56-1.98 169.68-2.78 171.27-12.89ZM204.35-12.57Q204.35-14.99 203.59-17.09 202.83-19.19 201.27-20.5 199.71-21.8 197.44-21.8L197.44-21.8Q194.31-21.8 191.77-19.92 189.23-18.04 187.79-14.98 186.35-11.91 186.35-8.47L186.35-8.47Q186.35-5.88 187.16-3.82 187.96-1.76 189.56-0.56 191.16 0.63 193.41 0.63L193.41 0.63Q196.53 0.63 199.04-1.27 201.54-3.17 202.94-6.23 204.35-9.28 204.35-12.57L204.35-12.57ZM194.95-2.29Q193.65-2.29 192.61-3.11 191.58-3.93 190.98-5.55 190.38-7.18 190.38-9.47L190.38-9.47Q190.38-12.48 191.03-14.61 191.67-16.75 192.82-17.83 193.97-18.92 195.48-18.92L195.48-18.92Q197.95-18.92 199.12-16.81 200.29-14.7 200.29-11.52L200.29-11.52Q200.29-7.2 198.9-4.75 197.51-2.29 194.95-2.29L194.95-2.29ZM220.07-5.08Q219.11-4.17 218.06-3.61 217.01-3.05 215.5-3.05L215.5-3.05Q214.11-3.05 213.5-3.86 212.89-4.66 212.89-6.23L212.89-6.23Q212.89-7.13 213.08-8.42L213.08-8.42 214.38-16.92Q214.55-17.87 214.55-18.75L214.55-18.75Q214.55-20.21 213.82-20.92 213.08-21.63 211.28-21.63L211.28-21.63Q209.2-21.63 207.54-20.83L207.54-20.83 207.32-18.87 208.35-18.9Q209.42-18.9 209.99-18.58 210.57-18.26 210.57-17.33L210.57-17.33Q210.57-17.21 210.52-16.82L210.52-16.82 209.01-6.27Q208.81-4.96 208.81-4L208.81-4Q208.81-1.66 209.82-0.55 210.84 0.56 212.89 0.56L212.89 0.56Q214.89 0.56 216.73-0.7 218.58-1.95 219.82-3.61L219.82-3.61 220.11-3.61Q219.94-2.86 219.94-2.15L219.94-2.15Q219.94 0.44 222.8 0.44L222.8 0.44Q223.7 0.44 224.57 0.22 225.44 0 226.39-0.34L226.39-0.34 226.83-2.03 225.22-2.32Q224.53-2.42 224.18-2.73 223.83-3.05 223.83-3.74L223.83-3.74Q223.83-3.88 223.87-4.22L223.87-4.22 225.61-16.92Q225.75-18.24 225.75-18.68L225.75-18.68Q225.75-20.19 225.05-20.91 224.34-21.63 222.51-21.63L222.51-21.63Q220.43-21.63 218.77-20.83L218.77-20.83 218.55-18.87 219.58-18.9Q220.65-18.9 221.22-18.58 221.8-18.26 221.8-17.33L221.8-17.33Q221.8-17.21 221.75-16.82L221.75-16.82 220.07-5.08ZM233.93 0L235.57-12.4Q236.42-14.16 237.68-15.61 238.93-17.07 240.38-17.07L240.38-17.07Q241.03-17.07 241.51-16.89 241.99-16.72 242.47-16.24L242.47-16.24Q243.16-16.92 243.5-17.77 243.84-18.63 243.84-19.46L243.84-19.46Q243.84-20.46 243.22-21.12 242.6-21.78 241.5-21.78L241.5-21.78Q240.33-21.78 239.23-20.75 238.13-19.73 237.25-18.13 236.37-16.53 235.81-14.82L235.81-14.82 235.54-14.82 236.1-17.63Q236.27-18.58 236.27-19.07L236.27-19.07Q236.27-20.48 235.44-21.15 234.61-21.83 232.86-21.83L232.86-21.83Q230.78-21.83 229.12-21.02L229.12-21.02 228.9-19.07 229.93-19.09Q231-19.09 231.56-18.77 232.12-18.46 232.12-17.5L232.12-17.5Q232.12-17.19 232.1-17.02L232.1-17.02 229.85 0 233.93 0ZM276.38-30.96L272.55-30.2 257.83-3.15 253.94-1.81 253.43 0 264.88 0 265.47-1.98 261.12-3.03 265-10.57 275.23-10.57 276.77-3.15 272.33-1.81 271.77 0 284.34 0 284.88-1.98 281.73-3.03 276.38-30.96ZM266.27-13.01L272.77-25.24 274.87-13.01 266.27-13.01ZM295.74-2.59Q293.22-2.59 292.03-4.25 290.83-5.91 290.83-9.28L290.83-9.28Q290.83-11.52 291.43-13.84 292.03-16.16 293.32-17.74 294.62-19.31 296.54-19.31L296.54-19.31Q297.55-19.31 298.17-18.77 298.79-18.24 299.14-17.47 299.5-16.7 299.96-15.31L299.96-15.31Q301.31-15.43 302.21-16.09 303.11-16.75 303.11-17.85L303.11-17.85Q303.11-19.6 301.9-20.64 300.69-21.68 298.57-21.68L298.57-21.68Q295.64-21.68 292.87-19.82 290.1-17.97 288.35-14.72 286.61-11.47 286.61-7.52L286.61-7.52Q286.61-4.86 287.54-3.04 288.46-1.22 290.12-0.32 291.78 0.59 294.01 0.59L294.01 0.59Q296.01 0.59 298.11-0.4 300.21-1.39 301.53-2.88L301.53-2.88 300.94-4.37Q298.06-2.59 295.74-2.59L295.74-2.59ZM319.49-9.23L321.25-20.31Q320.22-21.61 316.34-21.61L316.34-21.61Q313.51-21.61 310.62-19.81 307.72-18.02 305.81-14.62 303.89-11.23 303.89-6.69L303.89-6.69Q303.89-4.49 304.49-2.86 305.09-1.22 306.2-0.35 307.31 0.51 308.8 0.51L308.8 0.51Q310.56 0.51 312.12-0.55 313.68-1.61 314.56-3.22L314.56-3.22 314.85-3.22Q314.71-2.71 314.71-2.27L314.71-2.27Q314.71-1.05 315.59-0.32 316.46 0.42 317.9 0.42L317.9 0.42Q319.49 0.42 321.59-0.37L321.59-0.37 322.03-2.05 320.17-2.34Q319.52-2.44 319.23-2.88 318.95-3.32 318.95-4.39L318.95-4.39Q318.95-5.66 319.49-9.23L319.49-9.23ZM314.97-4.91Q313.97-3.78 313.01-3.19 312.04-2.59 310.78-2.59L310.78-2.59Q309.31-2.59 308.57-3.86 307.82-5.13 307.82-7.81L307.82-7.81Q307.82-10.47 308.61-13.09 309.41-15.7 310.86-17.38 312.31-19.07 314.17-19.07L314.17-19.07Q316.15-19.07 317.07-18.21L317.07-18.21 314.97-4.91ZM339.41-32.15Q337.34-32.15 335.68-31.35L335.68-31.35 335.46-29.39 336.48-29.42Q337.56-29.42 338.12-29.09 338.68-28.76 338.68-27.76L338.68-27.76Q338.68-27.49 338.65-27.34L338.65-27.34 337.97-21.51 337.82-21.51Q337.51-21.58 336.82-21.58L336.82-21.58Q333.6-21.58 330.54-19.82 327.47-18.07 325.53-14.75 323.59-11.43 323.59-6.98L323.59-6.98Q323.59-3.25 325.03-1.37 326.47 0.51 328.96 0.51L328.96 0.51Q330.74 0.51 332.29-0.48 333.84-1.46 334.72-2.98L334.72-2.98 335.04-2.98Q334.92-2.37 334.92-1.81L334.92-1.81Q334.97-0.83 335.66-0.23 336.36 0.37 337.82 0.37L337.82 0.37Q338.73 0.37 339.53 0.15 340.34-0.07 341.22-0.42L341.22-0.42 341.68-2.1 340.07-2.37Q339.48-2.47 339.25-2.77 339.02-3.08 339.02-3.91L339.02-3.91Q339.02-5.15 339.68-9.28L339.68-9.28 342.51-27.44Q342.68-28.39 342.68-29.27L342.68-29.27Q342.68-30.74 341.95-31.45 341.22-32.15 339.41-32.15L339.41-32.15ZM330.84-2.59Q329.16-2.59 328.36-3.92 327.57-5.25 327.57-8.23L327.57-8.23Q327.57-11.08 328.4-13.57 329.23-16.06 330.71-17.57 332.18-19.07 334.02-19.07L334.02-19.07Q335.06-19.07 335.75-18.77 336.43-18.48 337.09-17.97L337.09-17.97 335.09-4.91Q334.26-3.78 333.26-3.19 332.26-2.59 330.84-2.59L330.84-2.59ZM350.25 0.73Q351.81 0.73 353.34 0.12 354.86-0.49 356.05-1.4 357.23-2.32 357.82-3.22L357.82-3.22 357.18-4.32Q356.42-3.66 355.02-3.08 353.62-2.49 351.81-2.49L351.81-2.49Q349.91-2.49 349.04-3.83 348.17-5.18 348.17-7.79L348.17-7.79Q348.17-8.2 348.22-9.18L348.22-9.18Q352.74-9.06 355.84-10.77 358.94-12.48 358.94-16.89L358.94-16.89Q358.94-19.12 357.73-20.42 356.52-21.73 354.5-21.73L354.5-21.73Q351.81-21.73 349.43-19.71 347.05-17.7 345.62-14.32 344.19-10.94 344.19-7.06L344.19-7.06Q344.19 0.73 350.25 0.73L350.25 0.73ZM353.03-19.48Q354.06-19.48 354.67-18.52 355.28-17.55 355.28-16.19L355.28-16.19Q355.28-14.09 354.36-12.94 353.45-11.79 351.97-11.39 350.49-10.99 348.44-10.96L348.44-10.96Q348.59-14.14 349.31-16.04 350.03-17.94 351-18.71 351.98-19.48 353.03-19.48L353.03-19.48ZM390.26-4.27Q390.26-3.39 390.66-2.98 391.07-2.56 391.69-2.48 392.31-2.39 393.36-2.42L393.36-2.42 393.17-0.44Q392.56-0.12 391.62 0.11 390.68 0.34 389.72 0.34L389.72 0.34Q387.79 0.34 387-0.45 386.21-1.25 386.21-2.98L386.21-2.98Q386.21-3.78 386.35-4.81L386.35-4.81 387.38-12.82Q387.55-14.23 387.55-15.01L387.55-15.01Q387.55-16.58 387-17.38 386.45-18.19 385.18-18.19L385.18-18.19Q383.52-18.19 382.31-17.5 381.1-16.82 380.08-15.72L380.08-15.72 380.01-14.97 378.3 0 374.32 0 375.93-12.82Q376.08-13.99 376.08-14.94L376.08-14.94Q376.08-16.58 375.5-17.38 374.93-18.19 373.51-18.19L373.51-18.19Q372-18.19 370.95-17.63 369.9-17.07 368.95-16.16L368.95-16.16 366.63 0 362.65 0 364.89-17.02Q364.94-17.41 364.94-17.55L364.94-17.55Q364.94-18.48 364.38-18.79 363.82-19.09 362.75-19.09L362.75-19.09 361.7-19.07 361.92-21.02Q363.58-21.83 365.65-21.83L365.65-21.83Q367.38-21.83 368.24-21.17 369.09-20.51 369.09-19.12L369.09-19.12Q369.09-18.53 368.9-17.63L368.9-17.63 369.19-17.63Q370.44-19.29 372.28-20.54 374.12-21.8 376.12-21.8L376.12-21.8Q378.2-21.8 379.16-20.65 380.13-19.51 380.13-17.04L380.13-17.04Q381.59-18.97 383.6-20.39 385.6-21.8 387.79-21.8L387.79-21.8Q389.75-21.8 390.66-20.65 391.58-19.51 391.58-17.04L391.58-17.04Q391.58-15.92 391.46-14.97L391.46-14.97 390.82-9.23 390.55-7.13Q390.26-5.03 390.26-4.27L390.26-4.27ZM399.85-28.74Q399.85-27.64 400.63-26.87 401.41-26.1 402.49-26.1L402.49-26.1Q403.71-26.1 404.55-26.87 405.39-27.64 405.39-28.78L405.39-28.78Q405.39-29.96 404.63-30.75 403.86-31.54 402.76-31.54L402.76-31.54Q401.93-31.54 401.26-31.15 400.58-30.76 400.22-30.11 399.85-29.47 399.85-28.74L399.85-28.74ZM395.92-18.87L396.95-18.9Q398.05-18.9 398.61-18.59 399.17-18.29 399.17-17.38L399.17-17.38Q399.17-17.21 399.12-16.82L399.12-16.82 397.39-4.74Q397.24-3.69 397.24-2.86L397.24-2.86Q397.24-1.12 398.05-0.35 398.85 0.42 400.76 0.42L400.76 0.42Q401.71 0.42 402.65 0.18 403.59-0.05 404.2-0.37L404.2-0.37 404.39-2.34Q403.34-2.32 402.72-2.4 402.1-2.49 401.7-2.91 401.29-3.32 401.29-4.2L401.29-4.2Q401.29-4.93 401.43-6.04 401.56-7.15 401.85-9.23L401.85-9.23 402.98-16.92Q403.12-17.92 403.12-18.73L403.12-18.73Q403.12-20.21 402.4-20.92 401.68-21.63 399.88-21.63L399.88-21.63Q397.8-21.63 396.14-20.83L396.14-20.83 395.92-18.87ZM416.09-2.59Q413.57-2.59 412.37-4.25 411.18-5.91 411.18-9.28L411.18-9.28Q411.18-11.52 411.78-13.84 412.37-16.16 413.67-17.74 414.96-19.31 416.89-19.31L416.89-19.31Q417.89-19.31 418.51-18.77 419.14-18.24 419.49-17.47 419.84-16.7 420.31-15.31L420.31-15.31Q421.65-15.43 422.55-16.09 423.46-16.75 423.46-17.85L423.46-17.85Q423.46-19.6 422.25-20.64 421.04-21.68 418.92-21.68L418.92-21.68Q415.99-21.68 413.22-19.82 410.45-17.97 408.7-14.72 406.95-11.47 406.95-7.52L406.95-7.52Q406.95-4.86 407.88-3.04 408.81-1.22 410.47-0.32 412.13 0.59 414.35 0.59L414.35 0.59Q416.35 0.59 418.45-0.4 420.55-1.39 421.87-2.88L421.87-2.88 421.29-4.37Q418.4-2.59 416.09-2.59L416.09-2.59ZM446.65-7.76L449.77-27.59 454.04-28.52 454.53-30.37 441.23-30.37 440.74-28.52 445.01-27.49 441.37-4.81Q440.93-1.98 439.14 0.51 437.34 3 433.95 5.81L433.95 5.81Q434.24 6.93 434.98 7.93L434.98 7.93Q439.18 5.44 441.34 3.58 443.5 1.71 444.73-0.87 445.96-3.44 446.65-7.76L446.65-7.76ZM474.16-12.57Q474.16-14.99 473.4-17.09 472.65-19.19 471.08-20.5 469.52-21.8 467.25-21.8L467.25-21.8Q464.12-21.8 461.59-19.92 459.05-18.04 457.61-14.98 456.17-11.91 456.17-8.47L456.17-8.47Q456.17-5.88 456.97-3.82 457.78-1.76 459.38-0.56 460.98 0.63 463.22 0.63L463.22 0.63Q466.35 0.63 468.85-1.27 471.35-3.17 472.75-6.23 474.16-9.28 474.16-12.57L474.16-12.57ZM464.76-2.29Q463.47-2.29 462.43-3.11 461.39-3.93 460.79-5.55 460.19-7.18 460.19-9.47L460.19-9.47Q460.19-12.48 460.84-14.61 461.49-16.75 462.64-17.83 463.78-18.92 465.3-18.92L465.3-18.92Q467.76-18.92 468.93-16.81 470.11-14.7 470.11-11.52L470.11-11.52Q470.11-7.2 468.71-4.75 467.32-2.29 464.76-2.29L464.76-2.29ZM489.88-5.08Q488.93-4.17 487.88-3.61 486.83-3.05 485.31-3.05L485.31-3.05Q483.92-3.05 483.31-3.86 482.7-4.66 482.7-6.23L482.7-6.23Q482.7-7.13 482.9-8.42L482.9-8.42 484.19-16.92Q484.36-17.87 484.36-18.75L484.36-18.75Q484.36-20.21 483.63-20.92 482.9-21.63 481.09-21.63L481.09-21.63Q479.01-21.63 477.35-20.83L477.35-20.83 477.13-18.87 478.16-18.9Q479.23-18.9 479.81-18.58 480.38-18.26 480.38-17.33L480.38-17.33Q480.38-17.21 480.33-16.82L480.33-16.82 478.82-6.27Q478.62-4.96 478.62-4L478.62-4Q478.62-1.66 479.64-0.55 480.65 0.56 482.7 0.56L482.7 0.56Q484.7 0.56 486.55-0.7 488.39-1.95 489.63-3.61L489.63-3.61 489.93-3.61Q489.76-2.86 489.76-2.15L489.76-2.15Q489.76 0.44 492.61 0.44L492.61 0.44Q493.52 0.44 494.38 0.22 495.25 0 496.2-0.34L496.2-0.34 496.64-2.03 495.03-2.32Q494.35-2.42 493.99-2.73 493.64-3.05 493.64-3.74L493.64-3.74Q493.64-3.88 493.69-4.22L493.69-4.22 495.42-16.92Q495.57-18.24 495.57-18.68L495.57-18.68Q495.57-20.19 494.86-20.91 494.15-21.63 492.32-21.63L492.32-21.63Q490.25-21.63 488.58-20.83L488.58-20.83 488.37-18.87 489.39-18.9Q490.46-18.9 491.04-18.58 491.61-18.26 491.61-17.33L491.61-17.33Q491.61-17.21 491.56-16.82L491.56-16.82 489.88-5.08ZM503.74 0L505.38-12.4Q506.23-14.16 507.49-15.61 508.75-17.07 510.19-17.07L510.19-17.07Q510.85-17.07 511.32-16.89 511.8-16.72 512.29-16.24L512.29-16.24Q512.97-16.92 513.31-17.77 513.66-18.63 513.66-19.46L513.66-19.46Q513.66-20.46 513.03-21.12 512.41-21.78 511.31-21.78L511.31-21.78Q510.14-21.78 509.04-20.75 507.94-19.73 507.06-18.13 506.19-16.53 505.62-14.82L505.62-14.82 505.35-14.82 505.92-17.63Q506.09-18.58 506.09-19.07L506.09-19.07Q506.09-20.48 505.26-21.15 504.43-21.83 502.67-21.83L502.67-21.83Q500.59-21.83 498.93-21.02L498.93-21.02 498.71-19.07 499.74-19.09Q500.81-19.09 501.38-18.77 501.94-18.46 501.94-17.5L501.94-17.5Q501.94-17.19 501.91-17.02L501.91-17.02 499.67 0 503.74 0ZM518.44-21.83Q516.36-21.83 514.7-21.02L514.7-21.02 514.48-19.07 515.51-19.09Q516.58-19.09 517.16-18.77 517.73-18.46 517.73-17.53L517.73-17.53Q517.73-17.41 517.68-17.02L517.68-17.02 515.44 0 519.41 0 521.73-16.16Q522.69-17.07 523.74-17.63 524.79-18.19 526.3-18.19L526.3-18.19Q527.69-18.19 528.3-17.38 528.91-16.58 528.91-15.01L528.91-15.01Q528.91-14.11 528.72-12.82L528.72-12.82 527.47-4.81Q527.28-3.64 527.28-2.86L527.28-2.86Q527.28-1.2 528.11-0.43 528.94 0.34 530.84 0.34L530.84 0.34Q531.79 0.34 532.73 0.11 533.67-0.12 534.28-0.44L534.28-0.44 534.48-2.42Q533.43-2.39 532.81-2.48 532.18-2.56 531.78-2.98 531.38-3.39 531.38-4.27L531.38-4.27Q531.38-5.71 531.94-9.23L531.94-9.23 532.79-14.97Q533.01-16.28 533.01-17.33L533.01-17.33Q533.01-21.8 528.91-21.8L528.91-21.8Q526.91-21.8 525.07-20.54 523.22-19.29 521.98-17.63L521.98-17.63 521.69-17.63Q521.88-18.53 521.88-19.12L521.88-19.12Q521.88-20.51 521.03-21.17 520.17-21.83 518.44-21.83L518.44-21.83ZM542.09 0.73Q543.66 0.73 545.18 0.12 546.71-0.49 547.89-1.4 549.08-2.32 549.66-3.22L549.66-3.22 549.03-4.32Q548.27-3.66 546.87-3.08 545.46-2.49 543.66-2.49L543.66-2.49Q541.75-2.49 540.88-3.83 540.02-5.18 540.02-7.79L540.02-7.79Q540.02-8.2 540.07-9.18L540.07-9.18Q544.58-9.06 547.68-10.77 550.78-12.48 550.78-16.89L550.78-16.89Q550.78-19.12 549.58-20.42 548.37-21.73 546.34-21.73L546.34-21.73Q543.66-21.73 541.28-19.71 538.89-17.7 537.47-14.32 536.04-10.94 536.04-7.06L536.04-7.06Q536.04 0.73 542.09 0.73L542.09 0.73ZM544.88-19.48Q545.9-19.48 546.51-18.52 547.12-17.55 547.12-16.19L547.12-16.19Q547.12-14.09 546.21-12.94 545.29-11.79 543.81-11.39 542.34-10.99 540.29-10.96L540.29-10.96Q540.43-14.14 541.15-16.04 541.87-17.94 542.85-18.71 543.83-19.48 544.88-19.48L544.88-19.48ZM553.05 9.33Q551.32 9.33 550.17 8.53 549.02 7.74 549.02 6.27L549.02 6.27Q549.02 5.59 549.32 4.91 549.61 4.22 550.17 3.66L550.17 3.66Q551.25 4.39 552.16 4.71 553.08 5.03 554.1 5.03L554.1 5.03Q556.15 5.03 557.59 3.81 559.03 2.59 560.13 0L560.13 0 556.23-17.02Q556.03-17.92 555.73-18.36 555.42-18.8 555.02-18.95 554.61-19.09 553.93-19.09L553.93-19.09 552.95-19.07 553.17-21.02Q554.74-21.83 556.67-21.83L556.67-21.83Q558.03-21.83 558.7-21.23 559.38-20.63 559.64-19.68 559.91-18.73 560.28-16.53L560.28-16.53 562.5-3.49Q563.99-6.15 565.45-10.19 566.92-14.23 566.92-18.21L566.92-18.21Q566.92-18.75 566.48-19.02 566.04-19.29 565.31-19.29L565.31-19.29Q564.67-19.29 564.19-19.17L564.19-19.17 564.41-21.12Q565.87-21.92 567.65-21.92L567.65-21.92Q569.17-21.92 569.84-21.18 570.51-20.43 570.51-18.99L570.51-18.99Q570.51-17.46 569.26-14.06 568.02-10.67 566.15-6.76 564.28-2.86 562.57 0.05L562.57 0.05Q560.84 3.1 559.56 4.96 558.28 6.81 556.64 8.07 555.01 9.33 553.05 9.33L553.05 9.33Z" opacity="1" transform="matrix(1,0,0,1,0,0)" fill="#e3e3e3" class="slogan-text-1" data-fill-palette-color="secondary" id="text-1"></path></svg></g></svg></g></svg></g></svg></g><g><svg viewBox="0 0 189.153207936 149.7218138607023" height="149.7218138607023" width="189.153207936"><g><svg xmlns="http://www.w3.org/2000/svg" xmlns:xlink="http://www.w3.org/1999/xlink" version="1.1" x="0" y="0" viewBox="20.000127845568713 31.254523820776384 60.00030316545666 47.4924761792236" enable-background="new 0 0 100 100" xml:space="preserve" height="149.7218138607023" width="189.153207936" class="icon-icon-0" data-fill-palette-color="accent" id="icon-0"><path d="M79.297 49.314L52.402 31.516c-0.348-0.233-0.778-0.314-1.19-0.228l-29.788 6.291c-0.602 0.126-1.074 0.595-1.207 1.196l-0.179 0.806c-0.142 0.634 0.123 1.291 0.666 1.649l12.472 8.254-0.721 3.258c-0.363 1.648 0.86 3.642 3.725 5.537 5.44 3.6 14.722 5.484 20.748 4.211 2.849-0.601 4.456-1.802 4.784-3.28l0.621-2.813 8.047-1.699c1.001 1.415 1.653 3.131 1.818 5.32-0.817 0.423-1.383 1.265-1.383 2.25 0 0.825 0.399 1.551 1.011 2.016-0.692 3.527-1.614 10.01 0.226 12.883 0.542 0.846 1.309 1.386 2.219 1.559 0.072 0.014 0.144 0.021 0.215 0.021 0.535 0 1.012-0.379 1.116-0.925 0.117-0.617-0.288-1.213-0.904-1.331-0.2-0.037-0.462-0.134-0.729-0.55-0.649-1.014-0.801-3.015-0.681-5.273 0.561 1.752 1.424 3.328 2.753 4.203 0.528 0.349 1.232 0.2 1.576-0.325 0.345-0.524 0.199-1.229-0.325-1.575-1.788-1.178-2.543-5.216-2.704-8.49 0.779-0.435 1.312-1.257 1.312-2.211 0-1.001-0.583-1.857-1.423-2.271-0.15-2.332-0.756-4.231-1.692-5.808l5.792-1.224c0.602-0.126 1.074-0.595 1.207-1.196l0.179-0.806C80.104 50.33 79.839 49.673 79.297 49.314zM48.465 43.157c0.024-0.206 0.233-0.374 0.622-0.456 0.773-0.163 1.971 0.08 2.67 0.544 0.351 0.23 0.51 0.475 0.484 0.681l0 0-0.114 0.563h-0.001c-0.025 0.205-0.234 0.372-0.621 0.454-0.775 0.164-1.97-0.079-2.67-0.542-0.351-0.232-0.51-0.476-0.485-0.681L48.465 43.157z" fill="#e3e3e3" data-fill-palette-color="accent"></path></svg></g></svg></g></svg></g></svg></g><defs></defs></svg><rect width="395.52" height="98.74220616454285" fill="none" stroke="none" visibility="hidden"></rect></g></svg></g></svg>